<svg xmlns="http://www.w3.org/2000/svg"  viewBox="0 0 100 100" width="100px" height="100px"><path d="M 58.9375 7.1699219 A 1.0001 1.0001 0 0 0 57.962891 8.0917969 L 57.685547 11.113281 C 55.148477 10.951662 52.52494 10.974694 49.818359 11.232422 C 38.639364 12.29702 27.839529 15.166805 19.90625 20.283203 C 11.972971 25.399601 6.8980205 33.139154 8.1347656 42.951172 C 10.017576 57.890479 22.654574 70.346173 41.169922 73.380859 L 41.169922 89 A 2.0002 2.0002 0 0 0 44.777344 90.189453 L 56.876953 73.839844 C 75.57527 74.939397 90.698056 59.709328 91.890625 42.84375 C 92.452121 34.906011 89.049793 27.262747 82.892578 21.453125 A 1.0001 1.0001 0 0 0 83.136719 21.095703 L 84.714844 17.386719 A 1.0001 1.0001 0 0 0 83.787109 15.982422 A 1.0001 1.0001 0 0 0 82.875 16.603516 L 81.382812 20.113281 C 80.627807 19.481654 79.836988 18.876623 79.013672 18.298828 L 80.119141 14.951172 A 1.0001 1.0001 0 0 0 79.177734 13.623047 A 1.0001 1.0001 0 0 0 78.21875 14.324219 L 77.285156 17.152344 C 76.341898 16.56722 75.362312 16.015939 74.345703 15.503906 L 75.650391 11.550781 A 1.0001 1.0001 0 0 0 74.708984 10.224609 A 1.0001 1.0001 0 0 0 73.75 10.923828 L 72.521484 14.644531 C 71.642118 14.256676 70.737789 13.897503 69.8125 13.566406 L 70.103516 11.916016 A 1.0001 1.0001 0 0 0 69.080078 10.730469 A 1.0001 1.0001 0 0 0 68.132812 11.568359 L 67.892578 12.927734 C 66.928516 12.634581 65.937925 12.377847 64.931641 12.148438 L 65.287109 8.2753906 A 1.0001 1.0001 0 0 0 64.269531 7.1699219 A 1.0001 1.0001 0 0 0 63.294922 8.0917969 L 62.958984 11.744141 C 61.886829 11.550531 60.792494 11.39776 59.679688 11.279297 L 59.955078 8.2734375 A 1.0001 1.0001 0 0 0 58.9375 7.1699219 z M 54.419922 15 C 55.65708 14.992454 56.866608 15.041145 58.052734 15.130859 A 1.0001 1.0001 0 0 0 58.623047 15.173828 C 76.933288 16.80234 88.810314 29.697172 87.900391 42.560547 C 86.841376 57.537371 72.952361 71.520973 56.044922 69.875 A 2.0002 2.0002 0 0 0 54.244141 70.675781 L 45.169922 82.933594 L 45.169922 71.746094 A 2.0002 2.0002 0 0 0 43.421875 69.763672 C 42.202807 69.607731 41.016618 69.406283 39.857422 69.167969 L 40.824219 66.240234 A 1.0001 1.0001 0 0 0 39.882812 64.914062 A 1.0001 1.0001 0 0 0 38.923828 65.613281 L 37.900391 68.716797 C 36.83043 68.447031 35.78808 68.142705 34.775391 67.804688 A 1.0002634 1.0002634 0 0 0 34.789062 67.767578 L 36.050781 63.941406 A 1.0001 1.0001 0 0 0 35.109375 62.615234 A 1.0001 1.0001 0 0 0 34.152344 63.314453 L 32.892578 67.128906 C 31.843471 66.721328 30.825009 66.279696 29.845703 65.800781 L 31.582031 60.542969 A 1.0001 1.0001 0 0 0 30.640625 59.214844 A 1.0001 1.0001 0 0 0 29.683594 59.916016 L 28.052734 64.855469 C 26.677969 64.088746 25.382339 63.253002 24.167969 62.351562 L 26.888672 58.529297 A 1.0001 1.0001 0 0 0 26.085938 56.9375 A 1.0001 1.0001 0 0 0 25.259766 57.369141 L 22.59375 61.115234 C 21.788112 60.439862 21.027525 59.73249 20.306641 59 L 23.550781 52.513672 A 1.0001 1.0001 0 0 0 22.611328 51.054688 A 1.0001 1.0001 0 0 0 21.761719 51.619141 L 18.855469 57.429688 C 17.770797 56.165898 16.808535 54.831443 15.966797 53.443359 A 1.0001 1.0001 0 0 0 16.226562 53.080078 L 19.007812 46.966797 A 1.0001 1.0001 0 0 0 18.115234 45.541016 A 1.0001 1.0001 0 0 0 17.1875 46.138672 L 14.816406 51.353516 C 13.969412 49.654177 13.294106 47.887128 12.810547 46.068359 L 14.876953 43.648438 A 1.0001 1.0001 0 0 0 14.117188 41.988281 A 1.0001 1.0001 0 0 0 13.355469 42.351562 L 12.277344 43.615234 C 12.211721 43.229079 12.152605 42.840673 12.103516 42.451172 C 11.061261 34.18219 14.972498 28.226587 22.074219 23.646484 C 29.17594 19.066382 39.461261 16.23725 50.197266 15.214844 C 51.634143 15.078018 53.041851 15.008405 54.419922 15 z M 67.263672 22.630859 C 66.822953 22.576109 66.371016 22.782656 66.134766 23.191406 C 65.819766 23.736406 66.007734 24.434047 66.552734 24.748047 C 67.097734 25.063047 67.794375 24.877031 68.109375 24.332031 C 68.424375 23.787031 68.236406 23.089391 67.691406 22.775391 C 67.555156 22.696641 67.410578 22.649109 67.263672 22.630859 z M 52.287109 24.619141 C 50.400109 24.619141 48.867187 26.152062 48.867188 28.039062 C 48.867188 29.926063 50.400109 31.457031 52.287109 31.457031 C 54.174109 31.457031 55.705078 29.926063 55.705078 28.039062 C 55.705078 26.152062 54.174109 24.619141 52.287109 24.619141 z M 75.640625 29.1875 C 75.199906 29.133125 74.747969 29.340047 74.511719 29.748047 C 74.196719 30.293047 74.384687 30.990687 74.929688 31.304688 C 75.474687 31.619687 76.172328 31.433672 76.486328 30.888672 C 76.801328 30.343672 76.613359 29.645078 76.068359 29.330078 C 75.932109 29.251578 75.787531 29.205625 75.640625 29.1875 z M 68.548828 30.964844 C 68.108109 30.910469 67.658125 31.117391 67.421875 31.525391 C 67.106875 32.070391 67.292891 32.768031 67.837891 33.082031 C 68.382891 33.397031 69.079531 33.211016 69.394531 32.666016 C 69.709531 32.121016 69.523516 31.424375 68.978516 31.109375 C 68.842266 31.030875 68.695734 30.982969 68.548828 30.964844 z M 52.257812 37.408203 A 2.0002 2.0002 0 0 0 50.287109 39.435547 L 50.287109 56.53125 A 2.0002 2.0002 0 1 0 54.287109 56.53125 L 54.287109 39.435547 A 2.0002 2.0002 0 0 0 52.257812 37.408203 z"/></svg>